<svg width="48" height="48" viewBox="0 0 48 48" fill="none" xmlns="http://www.w3.org/2000/svg">
<path d="M31.6373 26.3951C30.5009 27.9538 29.3066 29.5918 28.6521 31.4937H19.3506C18.6933 29.5696 17.4754 27.9072 16.3185 26.3283L16.3056 26.3107L16.3053 26.3103C15.9788 25.8657 15.6566 25.427 15.3474 24.983L15.3469 24.9823C14.1629 23.2888 13.4691 21.2258 13.4691 19C13.4691 13.2025 18.1827 8.5 23.9999 8.5C29.817 8.5 34.5308 13.2023 34.5308 19.0062C34.5308 21.2316 33.8372 23.2887 32.6525 24.9892L32.6525 24.9893C32.3433 25.4332 32.0211 25.8719 31.6946 26.3165L31.6935 26.318L31.6373 26.3951ZM28.514 35C28.514 37.485 26.4954 39.5 23.9999 39.5C21.5045 39.5 19.4859 37.485 19.4859 35V34.5H28.514V35ZM17.9831 20.5C18.8095 20.5 19.4859 19.8275 19.4859 19C19.4859 16.515 21.5045 14.5 23.9999 14.5C24.8263 14.5 25.5028 13.8275 25.5028 13C25.5028 12.1725 24.8263 11.5 23.9999 11.5C19.8455 11.5 16.4803 14.8538 16.4803 19C16.4803 19.8275 17.1568 20.5 17.9831 20.5Z" stroke="#70E61C"/>
</svg>
